M48
; DRILL file {KiCad 8.0.9-8.0.9-0~ubuntu22.04.1} date 2025-03-21T15:12:16+0700
; FORMAT={-:-/ absolute / inch / decimal}
; #@! TF.CreationDate,2025-03-21T15:12:16+07:00
; #@! TF.GenerationSoftware,Kicad,Pcbnew,8.0.9-8.0.9-0~ubuntu22.04.1
; #@! TF.FileFunction,Plated,1,2,PTH
FMAT,2
INCH
; #@! TA.AperFunction,Plated,PTH,ViaDrill
T1C0.0118
; #@! TA.AperFunction,Plated,PTH,ComponentDrill
T2C0.0394
%
G90
G05
T1
X3.4037Y-6.0339
X3.4665Y-3.9705
X3.7575Y-3.1575
X3.9831Y-5.363
X4.3406Y-3.7087
X4.4154Y-5.7524
X5.1287Y-5.278
X5.5988Y-5.7031
X5.9583Y-5.3134
X6.0Y-5.1114
X6.0992Y-5.1937
T2
X3.0695Y-5.8433
X3.0695Y-5.8433
X3.0695Y-5.9433
X3.0695Y-6.0433
X3.0695Y-6.1433
X3.1323Y-3.7799
X3.1323Y-3.8799
X3.1323Y-3.9799
X3.1323Y-4.0799
X3.9163Y-6.1169
X3.9791Y-4.0535
X4.0163Y-6.1169
X4.0791Y-4.0535
X5.8906Y-4.7772
X5.9906Y-4.7772
X6.0906Y-4.7772
X6.1906Y-4.7772
X6.1906Y-4.7772
X6.2736Y-5.2148
X6.2736Y-5.3148
M30
