%TF.GenerationSoftware,KiCad,Pcbnew,8.0.9-8.0.9-0~ubuntu22.04.1*%
%TF.CreationDate,2025-03-21T15:12:13+07:00*%
%TF.ProjectId,Rfid_PCB,52666964-5f50-4434-922e-6b696361645f,rev?*%
%TF.SameCoordinates,Original*%
%TF.FileFunction,Legend,Bot*%
%TF.FilePolarity,Positive*%
%FSLAX46Y46*%
G04 Gerber Fmt 4.6, Leading zero omitted, Abs format (unit mm)*
G04 Created by KiCad (PCBNEW 8.0.9-8.0.9-0~ubuntu22.04.1) date 2025-03-21 15:12:13*
%MOMM*%
%LPD*%
G01*
G04 APERTURE LIST*
%ADD10C,1.000000*%
%ADD11C,0.300000*%
G04 APERTURE END LIST*
D10*
X156526095Y-68195513D02*
X154145142Y-66528846D01*
X156526095Y-65338370D02*
X151526095Y-65338370D01*
X151526095Y-65338370D02*
X151526095Y-67243132D01*
X151526095Y-67243132D02*
X151764190Y-67719322D01*
X151764190Y-67719322D02*
X152002285Y-67957417D01*
X152002285Y-67957417D02*
X152478476Y-68195513D01*
X152478476Y-68195513D02*
X153192761Y-68195513D01*
X153192761Y-68195513D02*
X153668952Y-67957417D01*
X153668952Y-67957417D02*
X153907047Y-67719322D01*
X153907047Y-67719322D02*
X154145142Y-67243132D01*
X154145142Y-67243132D02*
X154145142Y-65338370D01*
X153907047Y-72005036D02*
X153907047Y-70338370D01*
X156526095Y-70338370D02*
X151526095Y-70338370D01*
X151526095Y-70338370D02*
X151526095Y-72719322D01*
X156526095Y-74624084D02*
X151526095Y-74624084D01*
X156526095Y-77005036D02*
X151526095Y-77005036D01*
X151526095Y-77005036D02*
X151526095Y-78195512D01*
X151526095Y-78195512D02*
X151764190Y-78909798D01*
X151764190Y-78909798D02*
X152240380Y-79385988D01*
X152240380Y-79385988D02*
X152716571Y-79624083D01*
X152716571Y-79624083D02*
X153668952Y-79862179D01*
X153668952Y-79862179D02*
X154383238Y-79862179D01*
X154383238Y-79862179D02*
X155335619Y-79624083D01*
X155335619Y-79624083D02*
X155811809Y-79385988D01*
X155811809Y-79385988D02*
X156288000Y-78909798D01*
X156288000Y-78909798D02*
X156526095Y-78195512D01*
X156526095Y-78195512D02*
X156526095Y-77005036D01*
X151526095Y-85100274D02*
X151526095Y-87957417D01*
X156526095Y-86528845D02*
X151526095Y-86528845D01*
X151526095Y-89624084D02*
X155573714Y-89624084D01*
X155573714Y-89624084D02*
X156049904Y-89862179D01*
X156049904Y-89862179D02*
X156288000Y-90100274D01*
X156288000Y-90100274D02*
X156526095Y-90576465D01*
X156526095Y-90576465D02*
X156526095Y-91528846D01*
X156526095Y-91528846D02*
X156288000Y-92005036D01*
X156288000Y-92005036D02*
X156049904Y-92243131D01*
X156049904Y-92243131D02*
X155573714Y-92481227D01*
X155573714Y-92481227D02*
X151526095Y-92481227D01*
X156526095Y-94862179D02*
X151526095Y-94862179D01*
X151526095Y-94862179D02*
X156526095Y-97719322D01*
X156526095Y-97719322D02*
X151526095Y-97719322D01*
X156526095Y-100100274D02*
X151526095Y-100100274D01*
X151526095Y-100100274D02*
X156526095Y-102957417D01*
X156526095Y-102957417D02*
X151526095Y-102957417D01*
X156526095Y-105338369D02*
X151526095Y-105338369D01*
X156526095Y-107719321D02*
X151526095Y-107719321D01*
X151526095Y-107719321D02*
X156526095Y-110576464D01*
X156526095Y-110576464D02*
X151526095Y-110576464D01*
X151764190Y-115576463D02*
X151526095Y-115100273D01*
X151526095Y-115100273D02*
X151526095Y-114385987D01*
X151526095Y-114385987D02*
X151764190Y-113671701D01*
X151764190Y-113671701D02*
X152240380Y-113195511D01*
X152240380Y-113195511D02*
X152716571Y-112957416D01*
X152716571Y-112957416D02*
X153668952Y-112719320D01*
X153668952Y-112719320D02*
X154383238Y-112719320D01*
X154383238Y-112719320D02*
X155335619Y-112957416D01*
X155335619Y-112957416D02*
X155811809Y-113195511D01*
X155811809Y-113195511D02*
X156288000Y-113671701D01*
X156288000Y-113671701D02*
X156526095Y-114385987D01*
X156526095Y-114385987D02*
X156526095Y-114862178D01*
X156526095Y-114862178D02*
X156288000Y-115576463D01*
X156288000Y-115576463D02*
X156049904Y-115814559D01*
X156049904Y-115814559D02*
X154383238Y-115814559D01*
X154383238Y-115814559D02*
X154383238Y-114862178D01*
D11*
X129450828Y-103087368D02*
X130450828Y-103087368D01*
X128879400Y-102730225D02*
X129950828Y-102373082D01*
X129950828Y-102373082D02*
X129950828Y-103301653D01*
X130307971Y-103873081D02*
X130379400Y-103944510D01*
X130379400Y-103944510D02*
X130450828Y-103873081D01*
X130450828Y-103873081D02*
X130379400Y-103801653D01*
X130379400Y-103801653D02*
X130307971Y-103873081D01*
X130307971Y-103873081D02*
X130450828Y-103873081D01*
X128950828Y-104444510D02*
X128950828Y-105444510D01*
X128950828Y-105444510D02*
X130450828Y-104801653D01*
X128950828Y-106658796D02*
X128950828Y-106373081D01*
X128950828Y-106373081D02*
X129022257Y-106230224D01*
X129022257Y-106230224D02*
X129093685Y-106158796D01*
X129093685Y-106158796D02*
X129307971Y-106015938D01*
X129307971Y-106015938D02*
X129593685Y-105944510D01*
X129593685Y-105944510D02*
X130165114Y-105944510D01*
X130165114Y-105944510D02*
X130307971Y-106015938D01*
X130307971Y-106015938D02*
X130379400Y-106087367D01*
X130379400Y-106087367D02*
X130450828Y-106230224D01*
X130450828Y-106230224D02*
X130450828Y-106515938D01*
X130450828Y-106515938D02*
X130379400Y-106658796D01*
X130379400Y-106658796D02*
X130307971Y-106730224D01*
X130307971Y-106730224D02*
X130165114Y-106801653D01*
X130165114Y-106801653D02*
X129807971Y-106801653D01*
X129807971Y-106801653D02*
X129665114Y-106730224D01*
X129665114Y-106730224D02*
X129593685Y-106658796D01*
X129593685Y-106658796D02*
X129522257Y-106515938D01*
X129522257Y-106515938D02*
X129522257Y-106230224D01*
X129522257Y-106230224D02*
X129593685Y-106087367D01*
X129593685Y-106087367D02*
X129665114Y-106015938D01*
X129665114Y-106015938D02*
X129807971Y-105944510D01*
X129450828Y-108087367D02*
X130450828Y-108087367D01*
X129450828Y-107444509D02*
X130236542Y-107444509D01*
X130236542Y-107444509D02*
X130379400Y-107515938D01*
X130379400Y-107515938D02*
X130450828Y-107658795D01*
X130450828Y-107658795D02*
X130450828Y-107873081D01*
X130450828Y-107873081D02*
X130379400Y-108015938D01*
X130379400Y-108015938D02*
X130307971Y-108087367D01*
X130450828Y-108801652D02*
X128950828Y-108801652D01*
X129665114Y-108801652D02*
X129665114Y-109658795D01*
X130450828Y-109658795D02*
X128950828Y-109658795D01*
X93651203Y-75670828D02*
X94365489Y-75670828D01*
X94365489Y-75670828D02*
X94436917Y-76385114D01*
X94436917Y-76385114D02*
X94365489Y-76313685D01*
X94365489Y-76313685D02*
X94222632Y-76242257D01*
X94222632Y-76242257D02*
X93865489Y-76242257D01*
X93865489Y-76242257D02*
X93722632Y-76313685D01*
X93722632Y-76313685D02*
X93651203Y-76385114D01*
X93651203Y-76385114D02*
X93579774Y-76527971D01*
X93579774Y-76527971D02*
X93579774Y-76885114D01*
X93579774Y-76885114D02*
X93651203Y-77027971D01*
X93651203Y-77027971D02*
X93722632Y-77099400D01*
X93722632Y-77099400D02*
X93865489Y-77170828D01*
X93865489Y-77170828D02*
X94222632Y-77170828D01*
X94222632Y-77170828D02*
X94365489Y-77099400D01*
X94365489Y-77099400D02*
X94436917Y-77027971D01*
X92294061Y-76170828D02*
X92294061Y-77170828D01*
X92936918Y-76170828D02*
X92936918Y-76956542D01*
X92936918Y-76956542D02*
X92865489Y-77099400D01*
X92865489Y-77099400D02*
X92722632Y-77170828D01*
X92722632Y-77170828D02*
X92508346Y-77170828D01*
X92508346Y-77170828D02*
X92365489Y-77099400D01*
X92365489Y-77099400D02*
X92294061Y-77027971D01*
X91579775Y-77170828D02*
X91579775Y-75670828D01*
X91579775Y-76385114D02*
X90722632Y-76385114D01*
X90722632Y-77170828D02*
X90722632Y-75670828D01*
X94122632Y-126360828D02*
X94122632Y-127360828D01*
X94479774Y-125789400D02*
X94836917Y-126860828D01*
X94836917Y-126860828D02*
X93908346Y-126860828D01*
X93336918Y-127217971D02*
X93265489Y-127289400D01*
X93265489Y-127289400D02*
X93336918Y-127360828D01*
X93336918Y-127360828D02*
X93408346Y-127289400D01*
X93408346Y-127289400D02*
X93336918Y-127217971D01*
X93336918Y-127217971D02*
X93336918Y-127360828D01*
X92408346Y-126503685D02*
X92551203Y-126432257D01*
X92551203Y-126432257D02*
X92622632Y-126360828D01*
X92622632Y-126360828D02*
X92694060Y-126217971D01*
X92694060Y-126217971D02*
X92694060Y-126146542D01*
X92694060Y-126146542D02*
X92622632Y-126003685D01*
X92622632Y-126003685D02*
X92551203Y-125932257D01*
X92551203Y-125932257D02*
X92408346Y-125860828D01*
X92408346Y-125860828D02*
X92122632Y-125860828D01*
X92122632Y-125860828D02*
X91979775Y-125932257D01*
X91979775Y-125932257D02*
X91908346Y-126003685D01*
X91908346Y-126003685D02*
X91836917Y-126146542D01*
X91836917Y-126146542D02*
X91836917Y-126217971D01*
X91836917Y-126217971D02*
X91908346Y-126360828D01*
X91908346Y-126360828D02*
X91979775Y-126432257D01*
X91979775Y-126432257D02*
X92122632Y-126503685D01*
X92122632Y-126503685D02*
X92408346Y-126503685D01*
X92408346Y-126503685D02*
X92551203Y-126575114D01*
X92551203Y-126575114D02*
X92622632Y-126646542D01*
X92622632Y-126646542D02*
X92694060Y-126789400D01*
X92694060Y-126789400D02*
X92694060Y-127075114D01*
X92694060Y-127075114D02*
X92622632Y-127217971D01*
X92622632Y-127217971D02*
X92551203Y-127289400D01*
X92551203Y-127289400D02*
X92408346Y-127360828D01*
X92408346Y-127360828D02*
X92122632Y-127360828D01*
X92122632Y-127360828D02*
X91979775Y-127289400D01*
X91979775Y-127289400D02*
X91908346Y-127217971D01*
X91908346Y-127217971D02*
X91836917Y-127075114D01*
X91836917Y-127075114D02*
X91836917Y-126789400D01*
X91836917Y-126789400D02*
X91908346Y-126646542D01*
X91908346Y-126646542D02*
X91979775Y-126575114D01*
X91979775Y-126575114D02*
X92122632Y-126503685D01*
X90479775Y-125860828D02*
X91194061Y-125860828D01*
X91194061Y-125860828D02*
X91265489Y-126575114D01*
X91265489Y-126575114D02*
X91194061Y-126503685D01*
X91194061Y-126503685D02*
X91051204Y-126432257D01*
X91051204Y-126432257D02*
X90694061Y-126432257D01*
X90694061Y-126432257D02*
X90551204Y-126503685D01*
X90551204Y-126503685D02*
X90479775Y-126575114D01*
X90479775Y-126575114D02*
X90408346Y-126717971D01*
X90408346Y-126717971D02*
X90408346Y-127075114D01*
X90408346Y-127075114D02*
X90479775Y-127217971D01*
X90479775Y-127217971D02*
X90551204Y-127289400D01*
X90551204Y-127289400D02*
X90694061Y-127360828D01*
X90694061Y-127360828D02*
X91051204Y-127360828D01*
X91051204Y-127360828D02*
X91194061Y-127289400D01*
X91194061Y-127289400D02*
X91265489Y-127217971D01*
X89122633Y-126360828D02*
X89122633Y-127360828D01*
X89765490Y-126360828D02*
X89765490Y-127146542D01*
X89765490Y-127146542D02*
X89694061Y-127289400D01*
X89694061Y-127289400D02*
X89551204Y-127360828D01*
X89551204Y-127360828D02*
X89336918Y-127360828D01*
X89336918Y-127360828D02*
X89194061Y-127289400D01*
X89194061Y-127289400D02*
X89122633Y-127217971D01*
X88408347Y-127360828D02*
X88408347Y-125860828D01*
X88408347Y-126575114D02*
X87551204Y-126575114D01*
X87551204Y-127360828D02*
X87551204Y-125860828D01*
M02*
