%TF.GenerationSoftware,KiCad,Pcbnew,8.0.9-8.0.9-0~ubuntu22.04.1*%
%TF.CreationDate,2025-03-21T15:09:18+07:00*%
%TF.ProjectId,Rfid_PCB,52666964-5f50-4434-922e-6b696361645f,rev?*%
%TF.SameCoordinates,Original*%
%TF.FileFunction,Soldermask,Top*%
%TF.FilePolarity,Negative*%
%FSLAX46Y46*%
G04 Gerber Fmt 4.6, Leading zero omitted, Abs format (unit mm)*
G04 Created by KiCad (PCBNEW 8.0.9-8.0.9-0~ubuntu22.04.1) date 2025-03-21 15:09:18*
%MOMM*%
%LPD*%
G01*
G04 APERTURE LIST*
G04 Aperture macros list*
%AMRoundRect*
0 Rectangle with rounded corners*
0 $1 Rounding radius*
0 $2 $3 $4 $5 $6 $7 $8 $9 X,Y pos of 4 corners*
0 Add a 4 corners polygon primitive as box body*
4,1,4,$2,$3,$4,$5,$6,$7,$8,$9,$2,$3,0*
0 Add four circle primitives for the rounded corners*
1,1,$1+$1,$2,$3*
1,1,$1+$1,$4,$5*
1,1,$1+$1,$6,$7*
1,1,$1+$1,$8,$9*
0 Add four rect primitives between the rounded corners*
20,1,$1+$1,$2,$3,$4,$5,0*
20,1,$1+$1,$4,$5,$6,$7,0*
20,1,$1+$1,$6,$7,$8,$9,0*
20,1,$1+$1,$8,$9,$2,$3,0*%
G04 Aperture macros list end*
%ADD10O,1.700000X1.700000*%
%ADD11R,1.700000X1.700000*%
%ADD12RoundRect,0.100000X0.100000X-0.637500X0.100000X0.637500X-0.100000X0.637500X-0.100000X-0.637500X0*%
%ADD13RoundRect,0.140000X-0.140000X-0.170000X0.140000X-0.170000X0.140000X0.170000X-0.140000X0.170000X0*%
%ADD14RoundRect,0.100000X0.637500X0.100000X-0.637500X0.100000X-0.637500X-0.100000X0.637500X-0.100000X0*%
%ADD15RoundRect,0.140000X0.170000X-0.140000X0.170000X0.140000X-0.170000X0.140000X-0.170000X-0.140000X0*%
G04 APERTURE END LIST*
D10*
%TO.C,REF\u002A\u002A*%
X159350000Y-132455000D03*
D11*
X159350000Y-134995000D03*
%TD*%
D12*
%TO.C,REF\u002A\u002A*%
X152385000Y-128107500D03*
X153035000Y-128107500D03*
X153685000Y-128107500D03*
X154335000Y-128107500D03*
X154335000Y-133832500D03*
X153685000Y-133832500D03*
X153035000Y-133832500D03*
X152385000Y-133832500D03*
%TD*%
D13*
%TO.C,REF\u002A\u002A*%
X153810000Y-136110000D03*
X152850000Y-136110000D03*
%TD*%
D10*
%TO.C,REF\u002A\u002A*%
X149620000Y-121340000D03*
X152160000Y-121340000D03*
X154700000Y-121340000D03*
D11*
X157240000Y-121340000D03*
%TD*%
%TO.C,*%
X157240000Y-121340000D03*
%TD*%
D10*
%TO.C,REF\u002A\u002A*%
X102015000Y-155370000D03*
D11*
X99475000Y-155370000D03*
%TD*%
D14*
%TO.C,REF\u002A\u002A*%
X84732500Y-153275000D03*
X84732500Y-152625000D03*
X84732500Y-151975000D03*
X84732500Y-151325000D03*
X90457500Y-151325000D03*
X90457500Y-151975000D03*
X90457500Y-152625000D03*
X90457500Y-153275000D03*
%TD*%
D15*
%TO.C,REF\u002A\u002A*%
X92735000Y-151850000D03*
X92735000Y-152810000D03*
%TD*%
D10*
%TO.C,REF\u002A\u002A*%
X77965000Y-156040000D03*
X77965000Y-153500000D03*
X77965000Y-150960000D03*
D11*
X77965000Y-148420000D03*
%TD*%
%TO.C,*%
X77965000Y-148420000D03*
%TD*%
D15*
%TO.C,REF\u002A\u002A*%
X94330000Y-100400000D03*
X94330000Y-99440000D03*
%TD*%
D11*
%TO.C,REF\u002A\u002A*%
X101070000Y-102960000D03*
D10*
X103610000Y-102960000D03*
%TD*%
D11*
%TO.C,REF\u002A\u002A*%
X79560000Y-96010000D03*
D10*
X79560000Y-98550000D03*
X79560000Y-101090000D03*
X79560000Y-103630000D03*
%TD*%
D14*
%TO.C,REF\u002A\u002A*%
X92052500Y-100865000D03*
X92052500Y-100215000D03*
X92052500Y-99565000D03*
X92052500Y-98915000D03*
X86327500Y-98915000D03*
X86327500Y-99565000D03*
X86327500Y-100215000D03*
X86327500Y-100865000D03*
%TD*%
M02*
