%TF.GenerationSoftware,KiCad,Pcbnew,8.0.9-8.0.9-0~ubuntu22.04.1*%
%TF.CreationDate,2025-03-21T15:09:18+07:00*%
%TF.ProjectId,Rfid_PCB,52666964-5f50-4434-922e-6b696361645f,rev?*%
%TF.SameCoordinates,Original*%
%TF.FileFunction,Copper,L2,Bot*%
%TF.FilePolarity,Positive*%
%FSLAX46Y46*%
G04 Gerber Fmt 4.6, Leading zero omitted, Abs format (unit mm)*
G04 Created by KiCad (PCBNEW 8.0.9-8.0.9-0~ubuntu22.04.1) date 2025-03-21 15:09:18*
%MOMM*%
%LPD*%
G01*
G04 APERTURE LIST*
%TA.AperFunction,ComponentPad*%
%ADD10O,1.700000X1.700000*%
%TD*%
%TA.AperFunction,ComponentPad*%
%ADD11R,1.700000X1.700000*%
%TD*%
%TA.AperFunction,ViaPad*%
%ADD12C,0.600000*%
%TD*%
%TA.AperFunction,Conductor*%
%ADD13C,0.200000*%
%TD*%
%TA.AperFunction,Conductor*%
%ADD14C,0.300000*%
%TD*%
%TA.AperFunction,Conductor*%
%ADD15C,0.600000*%
%TD*%
G04 APERTURE END LIST*
D10*
%TO.P,REF\u002A\u002A,2*%
%TO.N,N/C*%
X159350000Y-132455000D03*
D11*
%TO.P,REF\u002A\u002A,1*%
X159350000Y-134995000D03*
%TD*%
D10*
%TO.P,REF\u002A\u002A,4*%
%TO.N,N/C*%
X149620000Y-121340000D03*
%TO.P,REF\u002A\u002A,3*%
X152160000Y-121340000D03*
%TO.P,REF\u002A\u002A,2*%
X154700000Y-121340000D03*
D11*
%TO.P,REF\u002A\u002A,1*%
X157240000Y-121340000D03*
%TD*%
%TO.P,,1*%
%TO.N,N/C*%
X157240000Y-121340000D03*
%TD*%
D10*
%TO.P,REF\u002A\u002A,2*%
%TO.N,N/C*%
X102015000Y-155370000D03*
D11*
%TO.P,REF\u002A\u002A,1*%
X99475000Y-155370000D03*
%TD*%
D10*
%TO.P,REF\u002A\u002A,4*%
%TO.N,N/C*%
X77965000Y-156040000D03*
%TO.P,REF\u002A\u002A,3*%
X77965000Y-153500000D03*
%TO.P,REF\u002A\u002A,2*%
X77965000Y-150960000D03*
D11*
%TO.P,REF\u002A\u002A,1*%
X77965000Y-148420000D03*
%TD*%
%TO.P,,1*%
%TO.N,N/C*%
X77965000Y-148420000D03*
%TD*%
%TO.P,REF\u002A\u002A,1*%
%TO.N,N/C*%
X101070000Y-102960000D03*
D10*
%TO.P,REF\u002A\u002A,2*%
X103610000Y-102960000D03*
%TD*%
D11*
%TO.P,REF\u002A\u002A,1*%
%TO.N,N/C*%
X79560000Y-96010000D03*
D10*
%TO.P,REF\u002A\u002A,2*%
X79560000Y-98550000D03*
%TO.P,REF\u002A\u002A,3*%
X79560000Y-101090000D03*
%TO.P,REF\u002A\u002A,4*%
X79560000Y-103630000D03*
%TD*%
D12*
%TO.N,*%
X151340000Y-134960000D03*
X154920000Y-131920000D03*
X130270000Y-134060000D03*
X142210000Y-144860000D03*
X101170000Y-136220000D03*
X112150000Y-146110000D03*
X152400000Y-129830000D03*
X86455000Y-153260000D03*
X88050000Y-100850000D03*
X95440000Y-80200000D03*
X110250000Y-94200000D03*
%TD*%
D13*
%TO.N,*%
X151340000Y-134960000D02*
X151375000Y-134995000D01*
X151375000Y-134995000D02*
X159350000Y-134995000D01*
X154920000Y-131920000D02*
X155350000Y-132350000D01*
X155350000Y-132350000D02*
X159700000Y-132350000D01*
X154220000Y-129830000D02*
X154700000Y-129350000D01*
X154700000Y-129350000D02*
X154700000Y-121340000D01*
X152400000Y-129830000D02*
X154220000Y-129830000D01*
X86455000Y-151440000D02*
X85975000Y-150960000D01*
X85975000Y-150960000D02*
X77965000Y-150960000D01*
X86455000Y-153260000D02*
X86455000Y-151440000D01*
X88050000Y-100850000D02*
X88050000Y-99030000D01*
X88050000Y-99030000D02*
X87570000Y-98550000D01*
X87570000Y-98550000D02*
X79560000Y-98550000D01*
D14*
X101160000Y-136210000D02*
X101170000Y-136220000D01*
X80050000Y-136210000D02*
X101160000Y-136210000D01*
X105550000Y-139390000D02*
X105550000Y-112710000D01*
X103350000Y-114910000D02*
X78950000Y-114910000D01*
X105550000Y-112710000D02*
X76750000Y-112710000D01*
X76750000Y-112710000D02*
X76750000Y-139510000D01*
X76750000Y-139510000D02*
X104450000Y-139510000D01*
X104450000Y-139510000D02*
X104450000Y-113810000D01*
X104450000Y-113810000D02*
X77850000Y-113810000D01*
X77850000Y-113810000D02*
X77850000Y-138410000D01*
X77850000Y-138410000D02*
X103350000Y-138410000D01*
X78950000Y-114910000D02*
X78950000Y-137310000D01*
X103350000Y-138410000D02*
X103350000Y-114910000D01*
X78950000Y-137310000D02*
X102240000Y-137310000D01*
X102240000Y-137310000D02*
X102250000Y-137300000D01*
X102250000Y-116010000D02*
X80050000Y-116010000D01*
X102250000Y-137300000D02*
X102250000Y-116010000D01*
X80050000Y-116010000D02*
X80050000Y-136210000D01*
X74550000Y-110510000D02*
X74550000Y-141710000D01*
X107750000Y-110510000D02*
X74550000Y-110510000D01*
X107750000Y-142810000D02*
X107750000Y-110510000D01*
X73450000Y-142810000D02*
X107750000Y-142810000D01*
X73450000Y-109410000D02*
X73450000Y-142810000D01*
X106650000Y-141710000D02*
X106650000Y-111610000D01*
X108850000Y-109410000D02*
X73450000Y-109410000D01*
X72350000Y-143910000D02*
X108850000Y-143910000D01*
X74550000Y-141710000D02*
X106650000Y-141710000D01*
X108850000Y-143910000D02*
X108850000Y-109410000D01*
X72350000Y-108310000D02*
X72350000Y-143910000D01*
X109950000Y-108310000D02*
X72350000Y-108310000D01*
X109950000Y-143480000D02*
X109950000Y-108310000D01*
X106650000Y-111610000D02*
X75650000Y-111610000D01*
X75650000Y-111610000D02*
X75650000Y-140610000D01*
X75650000Y-140610000D02*
X105550000Y-140610000D01*
X105550000Y-140610000D02*
X105550000Y-139390000D01*
X105550000Y-139510000D02*
X105550000Y-139390000D01*
X112150000Y-146110000D02*
X112150000Y-106110000D01*
X109950000Y-145010000D02*
X109950000Y-143480000D01*
X112150000Y-106110000D02*
X70150000Y-106110000D01*
X71250000Y-107210000D02*
X71250000Y-145010000D01*
X70150000Y-106110000D02*
X70150000Y-146110000D01*
X71250000Y-145010000D02*
X109950000Y-145010000D01*
X70150000Y-146110000D02*
X111050000Y-146110000D01*
X111050000Y-146110000D02*
X111050000Y-107210000D01*
X111050000Y-107210000D02*
X71250000Y-107210000D01*
X109950000Y-143910000D02*
X109950000Y-143480000D01*
X89250000Y-80200000D02*
X95440000Y-80200000D01*
X101250000Y-86200000D02*
X101250000Y-68200000D01*
X83250000Y-86200000D02*
X101250000Y-86200000D01*
X98220000Y-83200000D02*
X98250000Y-83170000D01*
X102250000Y-67200000D02*
X83250000Y-67200000D01*
X77250000Y-61200000D02*
X77250000Y-92200000D01*
X83250000Y-67200000D02*
X83250000Y-86200000D01*
X86250000Y-83200000D02*
X98220000Y-83200000D01*
X102250000Y-87200000D02*
X102250000Y-67200000D01*
X108250000Y-61200000D02*
X77250000Y-61200000D01*
X82250000Y-87200000D02*
X102250000Y-87200000D01*
X108250000Y-91950000D02*
X108250000Y-61200000D01*
X103250000Y-66200000D02*
X82250000Y-66200000D01*
X82250000Y-66200000D02*
X82250000Y-87200000D01*
X103250000Y-88200000D02*
X103250000Y-66200000D01*
X81250000Y-88200000D02*
X103250000Y-88200000D01*
X104250000Y-65200000D02*
X81250000Y-65200000D01*
X81250000Y-65200000D02*
X81250000Y-88200000D01*
X104250000Y-89200000D02*
X104250000Y-65200000D01*
X80250000Y-89200000D02*
X104250000Y-89200000D01*
X105250000Y-64200000D02*
X80250000Y-64200000D01*
X77250000Y-92200000D02*
X107250000Y-92200000D01*
X107250000Y-92200000D02*
X107250000Y-62200000D01*
X107250000Y-62200000D02*
X78250000Y-62200000D01*
X78250000Y-62200000D02*
X78250000Y-91200000D01*
X78250000Y-91200000D02*
X106250000Y-91200000D01*
X106250000Y-63200000D02*
X79250000Y-63200000D01*
X106250000Y-91200000D02*
X106250000Y-63200000D01*
X79250000Y-63200000D02*
X79250000Y-90200000D01*
X79250000Y-90200000D02*
X105250000Y-90200000D01*
X80250000Y-64200000D02*
X80250000Y-89200000D01*
X105250000Y-90200000D02*
X105250000Y-64200000D01*
X101250000Y-68200000D02*
X84250000Y-68200000D01*
X84250000Y-68200000D02*
X84250000Y-85200000D01*
X87250000Y-71200000D02*
X87250000Y-82200000D01*
X84250000Y-85200000D02*
X100250000Y-85200000D01*
X87250000Y-82200000D02*
X97250000Y-82200000D01*
X100250000Y-85200000D02*
X100250000Y-69200000D01*
X100250000Y-69200000D02*
X85250000Y-69200000D01*
X85250000Y-69200000D02*
X85250000Y-84200000D01*
X88250000Y-72200000D02*
X88250000Y-81200000D01*
X85250000Y-84200000D02*
X99230000Y-84200000D01*
X88250000Y-81200000D02*
X96230000Y-81200000D01*
X99230000Y-84200000D02*
X99250000Y-84180000D01*
X99250000Y-84180000D02*
X99250000Y-70200000D01*
X99250000Y-70200000D02*
X86250000Y-70200000D01*
X86250000Y-70200000D02*
X86250000Y-83200000D01*
X98250000Y-83170000D02*
X98250000Y-71200000D01*
X98250000Y-71200000D02*
X87250000Y-71200000D01*
X97250000Y-82200000D02*
X97250000Y-72200000D01*
X97250000Y-72200000D02*
X88250000Y-72200000D01*
X96230000Y-81200000D02*
X96250000Y-81180000D01*
X96250000Y-81180000D02*
X96250000Y-73200000D01*
X96250000Y-73200000D02*
X89250000Y-73200000D01*
X89250000Y-73200000D02*
X89250000Y-80200000D01*
X110250000Y-94200000D02*
X110250000Y-59200000D01*
X110250000Y-59200000D02*
X75250000Y-59200000D01*
X75250000Y-59200000D02*
X75250000Y-94200000D01*
X75250000Y-94200000D02*
X109250000Y-94200000D01*
X109250000Y-94200000D02*
X109250000Y-60200000D01*
X109250000Y-60200000D02*
X76250000Y-60200000D01*
X76250000Y-60200000D02*
X76250000Y-93200000D01*
X76250000Y-93200000D02*
X108250000Y-93200000D01*
X108250000Y-93200000D02*
X108250000Y-91950000D01*
X108250000Y-92200000D02*
X108250000Y-91950000D01*
D15*
X123210000Y-138860000D02*
X134980000Y-138860000D01*
X123210000Y-75860000D02*
X123210000Y-138860000D01*
X136200000Y-75860000D02*
X123210000Y-75860000D01*
X125610000Y-136460000D02*
X132610000Y-136460000D01*
X136200000Y-140050000D02*
X136200000Y-75860000D01*
X136190000Y-140060000D02*
X136200000Y-140050000D01*
X137410000Y-74660000D02*
X122010000Y-74660000D01*
X122010000Y-140060000D02*
X136190000Y-140060000D01*
X141010000Y-144810000D02*
X141010000Y-71060000D01*
X120810000Y-73460000D02*
X120810000Y-141260000D01*
X118410000Y-71060000D02*
X118410000Y-143660000D01*
X138610000Y-73460000D02*
X120810000Y-73460000D01*
X138610000Y-142420000D02*
X138610000Y-73460000D01*
X138570000Y-142460000D02*
X138610000Y-142420000D01*
X133810000Y-78260000D02*
X125610000Y-78260000D01*
X119610000Y-142460000D02*
X138570000Y-142460000D01*
X137410000Y-141260000D02*
X137410000Y-74660000D01*
X142210000Y-144860000D02*
X142210000Y-69860000D01*
X142210000Y-69860000D02*
X117210000Y-69860000D01*
X117210000Y-144860000D02*
X140960000Y-144860000D01*
X141010000Y-71060000D02*
X118410000Y-71060000D01*
X139810000Y-72260000D02*
X119610000Y-72260000D01*
X132610000Y-79460000D02*
X126810000Y-79460000D01*
X140960000Y-144860000D02*
X141010000Y-144810000D01*
X134980000Y-138860000D02*
X135010000Y-138830000D01*
X122010000Y-74660000D02*
X122010000Y-140060000D01*
X139810000Y-143600000D02*
X139810000Y-72260000D01*
X119610000Y-72260000D02*
X119610000Y-142460000D01*
X124410000Y-77060000D02*
X124410000Y-137660000D01*
X117210000Y-69860000D02*
X117210000Y-144860000D01*
X120810000Y-141260000D02*
X137410000Y-141260000D01*
X139750000Y-143660000D02*
X139810000Y-143600000D01*
X118410000Y-143660000D02*
X139750000Y-143660000D01*
X133810000Y-137620000D02*
X133810000Y-78260000D01*
X135010000Y-138830000D02*
X135010000Y-77060000D01*
X135010000Y-77060000D02*
X124410000Y-77060000D01*
X125610000Y-78260000D02*
X125610000Y-136460000D01*
X124410000Y-137660000D02*
X133770000Y-137660000D01*
X133770000Y-137660000D02*
X133810000Y-137620000D01*
X132610000Y-136460000D02*
X132610000Y-79460000D01*
X128010000Y-134060000D02*
X130270000Y-134060000D01*
X126810000Y-79460000D02*
X126810000Y-135260000D01*
X126810000Y-135260000D02*
X131410000Y-135260000D01*
X131410000Y-135260000D02*
X131410000Y-80660000D01*
X131410000Y-80660000D02*
X128010000Y-80660000D01*
X128010000Y-80660000D02*
X128010000Y-134060000D01*
%TD*%
M02*
